<?xml version="1.0" encoding="utf-8"?>
<!-- Generator: Adobe Illustrator 22.1.0, SVG Export Plug-In . SVG Version: 6.00 Build 0)  -->
<svg version="1.1" id="Layer_1" xmlns:sketch="http://www.bohemiancoding.com/sketch/ns"
	 xmlns="http://www.w3.org/2000/svg" xmlns:xlink="http://www.w3.org/1999/xlink" x="0px" y="0px" viewBox="0 0 200 200"
	 style="enable-background:new 0 0 200 200;" xml:space="preserve">
<style type="text/css">
	.st0{fill:#00C13B;}
	.st1{fill:#FFFFFF;}
	.st2{fill:#9EBEBC;}
	.st3{fill:#D9D9D8;}
	.st4{fill:#F26E26;}
	.st5{fill:#D75C27;}
	.st6{fill:#ECDDC9;}
	.st7{fill:#E0D3C1;}
	.st8{fill:#272724;}
	.st9{fill:#333330;}
	.st10{fill:#BAD6D5;}
	.st11{fill:#9BBBB9;}
	.st12{fill:#CBE4E2;}
	.st13{fill:#575757;}
	.st14{fill:#8BD3DF;}
	.st15{fill:#D6EEF3;}
	.st16{fill:#7CBEBE;}
	.st17{fill:#BEE5EC;}
	.st18{fill:#DEEEEC;}
	.st19{fill:#8AC5C3;}
	.st20{fill:#934E9D;}
	.st21{fill:#B4E0DE;}
	.st22{fill:#A465A8;}
	.st23{fill:#9FD7D4;}
	.st24{fill:#B1853F;}
	.st25{fill:#926A2D;}
	.st26{fill:#5D98C5;}
	.st27{fill:#9BB9D9;}
	.st28{fill:#518FB7;}
	.st29{fill:#5E5E5E;}
	.st30{fill:#62706F;}
	.st31{fill:#738180;}
	.st32{fill:#C6E6F9;}
	.st33{fill:#3F4040;}
</style>
<title>science-fox</title>
<desc>Created with Sketch.</desc>
<g id="Page-1_1_" sketch:type="MSPage">
	<g id="science-fox" sketch:type="MSArtboardGroup">
		<g id="Page-1" sketch:type="MSLayerGroup">
			<path id="Fill-1" sketch:type="MSShapeGroup" class="st0" d="M0,0.7v126.9l52.4,45.7L173.5,56.4L126.1,0.7H0z"/>
			<g id="Group-6" transform="translate(25.908046, 28.142857)" sketch:type="MSShapeGroup">
				<path id="Fill-2" class="st0" d="M0.9,84.6c0,46.5,37.7,84.2,84.3,84.2c46.5,0,84.3-37.7,84.3-84.2S131.8,0.4,85.2,0.4H0.9V84.6
					z"/>
				<path id="Fill-4" class="st1" d="M8.1,84.6c0,42.5,34.5,77,77,77s77-34.5,77-77s-34.5-77-77-77h-77C8.1,7.6,8.1,84.6,8.1,84.6z"
					/>
			</g>
			<g id="Group-296" transform="translate(65.333333, 54.034286)" sketch:type="MSShapeGroup">
				<path id="Fill-7" class="st1" d="M59.3,1.7c2.2,1,3.9,2.2,3.7,5.5c-0.2,3.2-0.1,8.3-4.3,9.2c-1.3,0.3-6.2,0.6-8-0.7
					c-1.9-1.4-4.6-4.3-6-4.4s-2.6,3-3.2,4.5c-1,2.4-5.3,3.3-7,3.5c-2.4,0.3-4.8-0.1-7-3.7c-1.8-2.9-1.5-6.9,0-9.2
					c1.7-2.6,7.6-4.7,17.2-5.7C52.8-0.1,56.9,0.6,59.3,1.7"/>
				<path id="Fill-9" class="st2" d="M24.6,93.1c0,0,13.8,1.4,21.8,0.2C55,92,65,88.9,65,88.9V78.1H24.6V93.1z"/>
				<path id="Fill-11" class="st3" d="M44.9,103.4c-14.1,0-25.6,2.9-25.6,6.6s11.4,6.6,25.6,6.6s25.6-2.9,25.6-6.6
					S59,103.4,44.9,103.4"/>
				<path id="Fill-13" class="st4" d="M48.7,81.8v26.1c0,0,7.2,3.1,9.3,3.6c4.3,1,5.9-2.7,3.7-3.2c-2.2-0.4-8.7-2.8-8.7-2.8V82.8
					L48.7,81.8z"/>
				<path id="Fill-15" class="st4" d="M40.8,83.8v24.1c0,0-7.8,3.3-9.9,3.8c-3.8,0.8-5.3-2.9-3.1-3.3s8.7-2.8,8.7-2.8V82.9
					L40.8,83.8z"/>
				<path id="Fill-17" class="st4" d="M81.5,63.1c-2.2,9.3-7.7,18.7-21.3,17.1l0.1-17.8c0-0.9,2.4-2.4,3-2.8c1.2-0.8,2.6-1.4,4-1.9
					c1.8-0.5,3.7-0.4,5.5-0.8"/>
				<path id="Fill-19" class="st5" d="M78.9,62.2c-3.1,6.3-8.8,11-18.7,9.8c0,4.2,0,8.2,0,8.2c13.6,1.6,19.1-7.8,21.3-17.1"/>
				<path id="Fill-21" class="st6" d="M82.7,46.5c0,3.8-2.2,7-5.5,8.8c-1.1,0.6-2.3,1.1-3.5,1.5c-0.4,0.1-0.8,0.2-1.2,0.3
					c0.6,1.4,2.7,4.6,8.9,6.1C83.4,54.8,82.7,46.5,82.7,46.5"/>
				<path id="Fill-23" class="st7" d="M82.8,50.2c0,0.1,0,0.2,0,0.3C82.8,50.4,82.8,50.3,82.8,50.2"/>
				<path id="Fill-25" class="st7" d="M82.8,49.7c0,0.1,0,0.1,0,0.2C82.8,49.9,82.8,49.8,82.8,49.7"/>
				<path id="Fill-27" class="st7" d="M82.8,50.7c0,0.1,0,0.2,0,0.4C82.8,50.9,82.8,50.8,82.8,50.7"/>
				<path id="Fill-29" class="st7" d="M82.8,48.9L82.8,48.9L82.8,48.9"/>
				<path id="Fill-31" class="st7" d="M0,0"/>
				<path id="Fill-33" class="st7" d="M82.8,49.3c0,0.1,0,0.1,0,0.2C82.8,49.4,82.8,49.3,82.8,49.3"/>
				<path id="Fill-35" class="st7" d="M82.8,51.2c0,0.1,0,0.3,0,0.4C82.8,51.5,82.8,51.4,82.8,51.2"/>
				<path id="Fill-37" class="st7" d="M82.8,51.8c0,0.2,0,0.3,0,0.5C82.8,52.1,82.8,51.9,82.8,51.8"/>
				<path id="Fill-39" class="st7" d="M82.8,52.3c0,0.2,0,0.4,0,0.6C82.8,52.7,82.8,52.5,82.8,52.3"/>
				<path id="Fill-41" class="st7" d="M82.7,46.8c0,0.3,0,0.6-0.1,1l0,0C82.6,47.4,82.7,47.1,82.7,46.8
					C82.7,46.7,82.7,46.7,82.7,46.8"/>
				<path id="Fill-43" class="st7" d="M82.7,46.5L82.7,46.5c0,0.1,0,0.2,0,0.2l0,0C82.7,46.6,82.7,46.6,82.7,46.5"/>
				<path id="Fill-45" class="st7" d="M82.8,48.9c0,0.1,0,0.2,0,0.3C82.8,49.2,82.8,49.1,82.8,48.9"/>
				<path id="Fill-47" class="st7" d="M82.8,49.4c0,0.1,0,0.2,0,0.3C82.8,49.6,82.8,49.5,82.8,49.4"/>
				<path id="Fill-49" class="st7" d="M82.8,52.3L82.8,52.3L82.8,52.3"/>
				<path id="Fill-51" class="st7" d="M82.8,52.9L82.8,52.9L82.8,52.9"/>
				<path id="Fill-53" class="st7" d="M82.8,48.5c0,0.1,0,0.3,0,0.4C82.8,48.7,82.8,48.6,82.8,48.5"/>
				<path id="Fill-55" class="st7" d="M82.8,50c0,0.1,0,0.2,0,0.3C82.8,50.1,82.8,50,82.8,50"/>
				<path id="Fill-57" class="st7" d="M82.8,51.7L82.8,51.7L82.8,51.7"/>
				<path id="Fill-59" class="st7" d="M82.8,51.1c0,0.1,0,0.1,0,0.2C82.8,51.2,82.8,51.1,82.8,51.1"/>
				<path id="Fill-61" class="st7" d="M82.8,48.5c0-1.2-0.1-2-0.1-2l0,0l0,0C82.7,46.7,82.7,47.4,82.8,48.5"/>
				<path id="Fill-63" class="st7" d="M82.8,50.5v0.2V50.5"/>
				<path id="Fill-65" class="st7" d="M82.8,52.3L82.8,52.3c0-0.2,0-0.4,0-0.6v-0.1c0-0.1,0-0.3,0-0.4s0-0.1,0-0.2s0-0.2,0-0.4v-0.2
					v-0.3c0-0.1,0-0.2,0-0.3s0-0.2,0-0.2c0-0.1,0-0.2,0-0.3s0-0.1,0-0.2s0-0.2,0-0.3v-0.1c0-0.1,0-0.3,0-0.4l0,0
					c0-1.1-0.1-1.8-0.1-1.9c0,0.1,0,0.1,0,0.2c0,0.4,0,0.7-0.1,1c-0.4,4.5-1.4,10-3.7,14.6c0.8,0.3,1.6,0.6,2.6,0.8
					c0.9-3.7,1.2-7.3,1.3-10.3l0,0C82.8,52.7,82.8,52.5,82.8,52.3"/>
				<path id="Fill-67" class="st7" d="M82.7,46.5L82.7,46.5c0,0,0,0.1,0,0.2C82.7,46.7,82.7,46.6,82.7,46.5"/>
				<path id="Fill-69" class="st4" d="M24.6,0.6v45H65v-45l-5.4,4.7H30.4L24.6,0.6z"/>
				<path id="Fill-71" class="st6" d="M65,13.1v18.1l-15.3,5C50.5,14.8,62.5,13.2,65,13.1"/>
				<path id="Fill-73" class="st6" d="M0,0"/>
				<path id="Fill-75" class="st6" d="M34.8,17.3c12.1,8.5,10.5,18.8,10.5,18.8l-20.8-4.9V13C24.6,13.1,30.4,14.2,34.8,17.3"/>
				<path id="Fill-77" class="st8" d="M35.4,24.7c0.6,0.6,0.6,1.6,0,2.2s-1.6,0.6-2.2,0c-0.6-0.6-0.6-1.6,0-2.2S34.8,24.1,35.4,24.7
					"/>
				<path id="Fill-79" class="st8" d="M60,24.6c0.6,0.6,0.6,1.6,0,2.2s-1.6,0.6-2.2,0c-0.6-0.6-0.6-1.6,0-2.2
					C58.3,24,59.3,24,60,24.6"/>
				<path id="Fill-81" class="st8" d="M45.4,36.1c0,0,0.1-1.7-0.6-4.3h5.3c-0.2,1.3-0.3,2.8-0.3,4.3"/>
				<path id="Fill-83" class="st9" d="M44.7,31.8H50c-0.1,0.4-0.1,0.9-0.1,1.3H45C45,32.8,44.9,32.3,44.7,31.8"/>
				<path id="Fill-85" class="st7" d="M65,13.1v2.3c-3.8,0.5-13.6,3.5-15.1,20.7h-0.1C50.6,14.8,62.5,13.2,65,13.1"/>
				<path id="Fill-87" class="st7" d="M24.6,13.1v2.3c5.3,0.5,18.8,3.5,20.8,20.7h0.2C44.5,14.8,28,13.2,24.6,13.1"/>
				<path id="Fill-89" class="st10" d="M24.6,32.9v59.6c4,0,19.6-4.6,23.5-9.6c3.9,4,13.8,6.2,16.9,5.9V33.1l-16.9,9.8L24.6,32.9z"
					/>
				<path id="Fill-91" class="st4" d="M78.4,29.3c0.3,0.8,0.5,1.7,0.3,2.5c-0.4,1.7-3.3,3.5-3.3,3.5s0.5,2.8,1.9,4.4
					c2.9-1.8,5.2-3.5,5.9-6.3c0.3-1.2,0.2-2.6-0.1-4.2C81.5,29.2,80,29.2,78.4,29.3"/>
				<path id="Fill-93" class="st10" d="M65,38.1c0,0,5.3,0.7,10.4-3.9c1.3,1.8,2.7,4.1,2.9,6.1c-4.4,2.6-7.4,3.5-13.3,3.8V38.1
					L65,38.1z"/>
				<path id="Fill-95" class="st11" d="M48.1,43c0,0,2.2,3.6,3.2,8.1c8.2-8.1,11.5-13.7,13.6-17.9C60.7,35.6,48.1,43,48.1,43"/>
				<path id="Fill-97" class="st12" d="M48.1,43c0,0,2.7,1.5,3.8,6.1c5.7-6,10.8-11.6,13.1-15.9C60.7,35.6,48.1,43,48.1,43"/>
				<path id="Fill-99" class="st13" d="M63,7.2c0.7,0,1.2,0.1,2,0.5c0.1,0.1,0.3,0.3,0.3,0.6c0,1.1,0,2.5,0,3.2
					c0,0.3-0.4,0.5-0.4,0.5s-1.8-0.6-2.3-0.6C62.9,9.4,63,7.6,63,7.2"/>
				<path id="Fill-101" class="st14" d="M30.4,5.2l-0.8-0.6c-1,0.6-1.7,1.2-2.2,1.9c-1.5,2.2-1.8,6.3,0,9.2c2.2,3.5,4.6,4,7,3.7
					c1.7-0.2,6-1.1,7-3.5c0.7-1.6,1.9-4.6,3.2-4.5c1.4,0.1,4.1,2.9,6,4.4c1.8,1.4,6.7,1,8,0.7c4.2-0.9,4.1-6,4.3-9.2
					c0.1-1.8-0.4-3-1.2-3.9l-2.2,1.9L30.4,5.2L30.4,5.2z"/>
				<path id="Fill-103" class="st15" d="M30.4,5.2h29.2l2.2-1.9c-0.6-0.7-1.5-1.2-2.5-1.6c-2.4-1.1-6.5-1.8-14.7-1
					c-7.1,0.8-12.2,2.1-15,3.9L30.4,5.2z"/>
				<path id="Fill-105" class="st14" d="M62.8,5.2c-0.2,3.2-0.5,7.2-4.2,8c-1.3,0.3-6.2,0.6-8-0.7c-1.9-1.4-4.6-4.3-6-4.4
					c-1.4-0.1-2.6,3-3.2,4.5c-1,2.4-5.3,3.3-7,3.5c-2.4,0.3-4.8-0.1-7-3.7c-0.5-0.9-0.9-1.9-1.1-2.9c-0.2,2.1,0.1,4.4,1.1,6.1
					c2.2,3.5,4.6,4,7,3.7c1.7-0.2,6-1.1,7-3.5c0.7-1.6,1.9-4.6,3.2-4.5c1.4,0.1,4.1,2.9,6,4.4c1.8,1.4,6.7,1,8,0.7
					c4.2-0.9,4.1-6,4.3-9.2C63,6.4,63,5.8,62.8,5.2"/>
				<path id="Fill-107" class="st16" d="M27.5,12.7c0,0,1.9,3.2,4.9,3.2c1.9,0,5.1-1.1,5.7-1.4c3.6-1.5,4.5-4.6,4.5-4.6
					s-0.9,4.2-3.4,5.2c-1,0.4-4.8,2.1-7.5,1.7C29.2,16.2,27.8,13.5,27.5,12.7"/>
				<path id="Fill-109" class="st16" d="M62.3,8.5c0,0-0.3,3.3-2.8,4.1c-2.3,0.7-5.8,0.4-6.5,0.3c-3.6-0.6-6-3.4-6-3.4
					s1.4,2.9,5.5,4.2c1,0.3,5.5,0.7,7.5-0.3C62.2,12.3,62.2,9.4,62.3,8.5"/>
				<path id="Fill-111" class="st16" d="M61.5,14c-1.2,1.7-2.8,1.9-4.4,2.2c-1.1,0.2-3.3,0.3-5.4-0.4c-0.7-0.2-2.6-1.5-2.9-1.9
					c-0.3-0.4-2.7-3.2-4.1-3c-0.8,0.1-1.7,1-2.3,1.9c-0.7,1.2-1.7,3.7-2.9,4.6c-2,1.4-4.2,1.9-6.3,2c-2.6,0-4.9-2.3-4.9-2.3
					c0.4,0.8,2.4,3.1,4.7,3.1c3.5,0,5.6-0.7,7.3-2.1c1.2-1,1.8-3.7,2.7-4.8c0.4-0.5,1.1-1.6,1.7-1.7c0.6-0.1,1.9,1,2.3,1.5
					c0.6,0.7,1.2,1.6,2.6,2.8c0.4,0.4,2.1,1.3,3.3,1.5c2.4,0.4,5.6-0.2,6.6-0.4c1-0.3,1.7-1.3,2.2-2.1c0.4-0.6,0.7-1.8,0.8-3.1
					C62.3,12.6,62.2,12.9,61.5,14"/>
				<path id="Fill-113" class="st14" d="M61,4.5c-0.1-0.1-0.2-0.2-0.2-0.3l-0.1,0.1C60.7,4.4,60.9,4.5,61,4.5"/>
				<path id="Fill-115" class="st14" d="M29.2,7.4c1-0.6,3.5-1.5,6.1-2.2h-3.2c-1,0.4-2,0.8-2.7,1.3c-1.2,0.9-2.1,2.6-2.1,2.6
					S28,8.1,29.2,7.4"/>
				<path id="Fill-117" class="st17" d="M60.7,4.3c-0.7-0.7-1.8-1.2-2.6-1.5c-0.9-0.3-4.1-0.6-8.5-0.4c-4.7,0.2-11.1,1.3-12.4,1.5
					c-0.9,0.2-3.1,0.6-5.1,1.3h3.2c0.7-0.2,1.4-0.3,2-0.5c3.4-0.6,9.7-1.4,12.3-1.6c3-0.1,5.9-0.1,8.3,0.2
					C59.4,3.6,59.9,3.8,60.7,4.3L60.7,4.3z"/>
				<path id="Fill-119" class="st13" d="M26.2,11.1l-1.6,0.3c0,0-0.4,0.1-0.4,0.5v4c0,0.3,0.4,0.4,0.4,0.4s1.1-0.6,2.9-0.8
					C26.7,14,26.4,13.6,26.2,11.1"/>
				<path id="Fill-121" class="st12" d="M48.1,43v40c0,0-10.2,10.2-23.5,10.2V33L48.1,43z"/>
				<path id="Fill-123" class="st11" d="M24.6,32.9l23.5,10c0,0-2.3,3.6-3.4,8.1C36.5,46.9,27.4,37.3,24.6,32.9"/>
				<path id="Fill-125" class="st10" d="M41.7,54.8l4.7,2.2L35.9,88.9l-11.3-7.1v-8.9L41.7,54.8z"/>
				<path id="Fill-127" class="st18" d="M24.6,32.9l23.5,10c0,0-2.7,2-3.8,6.5C35.9,44.3,27,35.9,24.6,32.9"/>
				<path id="Fill-129" class="st11" d="M65,42.4c0,0,3.2,1.1,10.2-0.5C71.3,44,65,44,65,44V42.4z"/>
				<path id="Fill-131" class="st11" d="M52.1,54.6l9.8-0.7v1.6l-9.8,1V54.6z"/>
				<path id="Fill-133" class="st12" d="M52.1,54.6c0,0,5.8,0.7,9.8-0.7v10.6c0,1.3-2,3.2-4.2,3.4c-3.1,0.3-5.7-1.1-5.7-3L52.1,54.6
					L52.1,54.6z"/>
				<path id="Fill-135" class="st16" d="M73.7,43.6l2.9-36.5l-5.8-0.5l-2.9,36.5l0,0l0,0v0.3l0,0c0,1.5,1.2,2.7,2.7,2.9
					c1.5,0.1,2.8-0.9,3.1-2.4l0,0L73.7,43.6L73.7,43.6L73.7,43.6z"/>
				<path id="Fill-137" class="st1" d="M71.7,7.3l-2.1,25.9l0,0c0,1,0.8,1.9,1.9,2s2-0.7,2.2-1.7l0,0l2.1-25.9L71.7,7.3z"/>
				<path id="Fill-139" class="st19" d="M73.9,5.7c-1.7-0.1-2.7,0.2-3.1,1c-0.1,0.3-0.2,0.7-0.1,1C70.9,8.4,72,9,73.6,9.2
					c1.7,0.1,2.7-0.3,3.1-1c0.1-0.3,0.2-0.6,0.1-1C76.5,6.4,75.5,5.9,73.9,5.7"/>
				<path id="Fill-141" class="st20" d="M70.9,17.5l-2.1,25.9l0,0c0,1,0.8,1.9,1.9,2s2-0.7,2.2-1.7l0,0L75,17.5H70.9z"/>
				<path id="Fill-143" class="st21" d="M72,7.4c0.3,0.3,1,0.5,1.7,0.5c0.8,0.1,1.4-0.1,1.8-0.3c-0.3-0.3-1-0.5-1.7-0.5
					C73,7,72.4,7.1,72,7.4"/>
				<path id="Fill-145" class="st22" d="M74.9,17.7c-0.3,0.5-1.4,0.7-2.5,0.7c-1.1-0.1-1.8-0.5-1.5-1s1.4-0.7,2.5-0.7
					C74.5,16.8,75.2,17.3,74.9,17.7"/>
				<g id="Group-177" transform="translate(67.586207, 9.005714)">
					<path id="Fill-147" class="st1" d="M5.5,3.6c-1-0.1-1.8-0.3-2.3-0.7L3.1,3.7C3.6,4,4.5,4.3,5.4,4.4L5.5,3.6z"/>
					<path id="Fill-149" class="st1" d="M5.6,1.4c-1-0.1-1.8-0.3-2.3-0.7L3.2,1.5c0.5,0.3,1.4,0.6,2.3,0.7L5.6,1.4z"/>
					<path id="Fill-151" class="st1" d="M5.3,5.8C4.3,5.7,3.5,5.5,3,5.1L2.9,5.9c0.5,0.3,1.4,0.6,2.3,0.7L5.3,5.8z"/>
					<path id="Fill-153" class="st1" d="M5.1,8c-1-0.1-1.8-0.3-2.3-0.7L2.7,8.1C3.2,8.4,4.1,8.7,5,8.8L5.1,8z"/>
					<path id="Fill-155" class="st1" d="M4.9,10.1c-1-0.1-1.8-0.3-2.3-0.7l-0.1,0.8c0.5,0.3,1.4,0.6,2.3,0.7L4.9,10.1z"/>
					<path id="Fill-157" class="st1" d="M4.7,12.3c-1-0.1-1.8-0.3-2.3-0.7l-0.1,0.8c0.5,0.3,1.4,0.6,2.3,0.7L4.7,12.3z"/>
					<path id="Fill-159" class="st1" d="M4.6,14.5c-1-0.1-1.8-0.3-2.3-0.7l-0.1,0.8c0.5,0.3,1.4,0.6,2.3,0.7L4.6,14.5z"/>
					<path id="Fill-161" class="st1" d="M4.4,16.7c-1-0.1-1.8-0.3-2.3-0.7L2,16.8c0.5,0.3,1.4,0.6,2.3,0.7L4.4,16.7z"/>
					<path id="Fill-163" class="st1" d="M4.2,18.9c-1-0.1-1.8-0.3-2.3-0.7L1.8,19c0.5,0.3,1.4,0.6,2.3,0.7L4.2,18.9z"/>
					<path id="Fill-165" class="st1" d="M3.7,25.4c-1-0.1-1.8-0.3-2.3-0.7l-0.1,0.8c0.5,0.3,1.4,0.6,2.3,0.7L3.7,25.4z"/>
					<path id="Fill-167" class="st1" d="M3.5,27.6c-1-0.1-1.8-0.3-2.3-0.7l-0.1,0.8c0.5,0.3,1.4,0.6,2.3,0.7L3.5,27.6z"/>
					<path id="Fill-169" class="st1" d="M3.3,29.8c-1-0.1-1.8-0.3-2.3-0.7l-0.1,0.8c0.5,0.3,1.4,0.6,2.3,0.7L3.3,29.8z"/>
					<path id="Fill-171" class="st1" d="M3.1,32c-1-0.1-1.8-0.3-2.3-0.7l-0.1,0.8c0.5,0.3,1.4,0.6,2.3,0.7L3.1,32z"/>
					<path id="Fill-173" class="st1" d="M4,21.1c-1-0.1-1.8-0.3-2.3-0.7l-0.1,0.8c0.5,0.3,1.4,0.6,2.3,0.7L4,21.1z"/>
					<path id="Fill-175" class="st1" d="M3.9,23.2c-1-0.1-1.8-0.3-2.3-0.7l-0.1,0.8C2,23.6,2.9,23.9,3.8,24L3.9,23.2z"/>
				</g>
				<path id="Fill-178" class="st23" d="M76.8,7.2c-0.3-0.8-1.3-1.3-2.9-1.5c-1.7-0.1-2.7,0.2-3.1,1c-0.1,0.3-0.2,0.7-0.1,1
					C70.9,8.4,72,9,73.6,9.2c1.7,0.1,2.7-0.3,3.1-1C76.8,7.9,76.9,7.5,76.8,7.2"/>
				<path id="Fill-180" class="st24" d="M75.8,7.2c0,0-0.1,1.1-0.1,1.8c-2.1,0.6-4.1-0.3-4.1-0.3l0.1-1.8L75.8,7.2z"/>
				<path id="Fill-182" class="st25" d="M71.6,5.4l0.1,1.4c0,0-0.1,0.8,1.9,1c2.1,0.2,2.2-0.7,2.2-0.7l0.4-1.3L71.6,5.4z"/>
				<path id="Fill-184" class="st24" d="M76.3,5.8c0,0.5-1.1,0.8-2.4,0.7c-1.3-0.1-2.3-0.6-2.2-1.1c0-0.5,1.1-0.8,2.4-0.7
					C75.3,4.7,76.3,5.2,76.3,5.8"/>
				<path id="Fill-186" class="st4" d="M80.5,23.3c-2.2-3.7-5.2-4.3-6.2-3.9c-1.5,0.6-1.8,3.1-0.6,4.2c0.8,0.8,3.7,3.1,4.7,5.6
					c1.5-0.1,3.1-0.1,4.6-0.1C82.6,27.4,81.8,25.5,80.5,23.3"/>
				<path id="Fill-188" class="st6" d="M80.5,23.3c-2.2-3.7-5.2-4.3-6.2-3.9c-1.5,0.6-1.8,3.1-0.6,4.2c0.5,0.5,2,1.7,3.2,3.2
					c1.4-0.4,3.1-1.3,4-3C80.8,23.7,80.6,23.5,80.5,23.3"/>
				<path id="Fill-190" class="st7" d="M74.4,20.1c0,0,1.2-0.4,2.7,0.5s2.9,2.6,3.6,3.8c-0.2,0.4-0.4,0.6-0.8,0.9
					c-0.5-0.6-2.4-3.3-3.6-4.1C75.2,20.6,74.8,20.2,74.4,20.1"/>
				<path id="Fill-192" class="st26" d="M8.1,38.1l-8,28.4l35,20.6l10.5-32.5L8.1,38.1z"/>
				<path id="Fill-194" class="st27" d="M12.8,44.3l-0.4,1.3l1.1,0.5l0.5-1.2L12.8,44.3z"/>
				<path id="Fill-196" class="st27" d="M8.7,42.3l-0.3,1.2l3.4,1.7l0.3-1.3L8.7,42.3z"/>
				<path id="Fill-198" class="st27" d="M9.2,40.2l-0.4,1.4l7.2,3.5l0.5-1.6L9.2,40.2z"/>
				<path id="Fill-200" class="st27" d="M14.3,50.3c-0.2,0.5-0.7,0.7-1.1,0.6c-0.4-0.2-0.6-0.7-0.4-1.1c0.2-0.5,0.7-0.7,1.1-0.6
					S14.5,49.8,14.3,50.3"/>
				<path id="Fill-202" class="st27" d="M28.6,58.1l-0.7-3.7c-0.2,0.1-0.5,0.2-0.7,0.2l0.7,3.7C28.1,58.2,28.4,58.1,28.6,58.1"/>
				<path id="Fill-204" class="st27" d="M21.4,57.5c-0.1-0.2-0.1-0.5,0-0.7L17.8,57c0,0.2,0,0.5-0.1,0.8L21.4,57.5z"/>
				<path id="Fill-206" class="st27" d="M35.6,55.6c-0.2,0.2-0.4,0.3-0.7,0.3l2.1,7.9c0.2-0.2,0.4-0.3,0.7-0.3L35.6,55.6z"/>
				<path id="Fill-208" class="st27" d="M14.4,51c-0.2,0.2-0.4,0.3-0.6,0.4l1.9,5.1c0.2-0.2,0.4-0.4,0.6-0.4L14.4,51z"/>
				<path id="Fill-210" class="st27" d="M26.1,53.7l-2.5,2.1c0.2,0.2,0.3,0.4,0.3,0.7l2.6-2.2C26.3,54.2,26.2,54,26.1,53.7"/>
				<path id="Fill-212" class="st27" d="M12.3,50.1L8,52.4l0.4,0.7l4.1-2.2C12.4,50.7,12.3,50.4,12.3,50.1"/>
				<path id="Fill-214" class="st27" d="M33.7,55.1l-4.3,3.4c0.2,0.2,0.3,0.4,0.3,0.7l4.4-3.4C33.9,55.6,33.8,55.4,33.7,55.1"/>
				<path id="Fill-216" class="st27" d="M7.7,53.7c-0.2,0.5-0.7,0.7-1.1,0.6c-0.4-0.2-0.6-0.7-0.4-1.1c0.2-0.5,0.7-0.7,1.1-0.6
					S7.8,53.2,7.7,53.7"/>
				<path id="Fill-218" class="st27" d="M38.6,65.1c-0.2,0.5-0.7,0.7-1.1,0.6c-0.4-0.2-0.6-0.7-0.4-1.1c0.2-0.5,0.7-0.7,1.1-0.6
					C38.6,64.1,38.8,64.7,38.6,65.1"/>
				<path id="Fill-220" class="st27" d="M35.6,54.8c-0.2,0.5-0.7,0.7-1.1,0.6c-0.4-0.2-0.6-0.7-0.4-1.1c0.2-0.5,0.7-0.7,1.1-0.6
					C35.6,53.8,35.8,54.4,35.6,54.8"/>
				<path id="Fill-222" class="st27" d="M29.2,59.9c-0.2,0.5-0.7,0.7-1.1,0.6c-0.4-0.2-0.6-0.7-0.4-1.1c0.2-0.5,0.7-0.7,1.1-0.6
					C29.2,58.9,29.4,59.5,29.2,59.9"/>
				<path id="Fill-224" class="st27" d="M28,53.6c-0.2,0.5-0.7,0.7-1.1,0.6c-0.4-0.2-0.6-0.7-0.4-1.1c0.2-0.5,0.7-0.7,1.1-0.6
					C28,52.6,28.2,53.1,28,53.6"/>
				<path id="Fill-226" class="st27" d="M23.4,57.3c-0.2,0.5-0.7,0.7-1.1,0.6c-0.4-0.2-0.6-0.7-0.4-1.1c0.2-0.5,0.7-0.7,1.1-0.6
					S23.5,56.8,23.4,57.3"/>
				<path id="Fill-228" class="st27" d="M17.2,57.7c-0.2,0.5-0.7,0.7-1.1,0.6c-0.4-0.2-0.6-0.7-0.4-1.1c0.2-0.5,0.7-0.7,1.1-0.6
					S17.4,57.2,17.2,57.7"/>
				<path id="Fill-230" class="st27" d="M22.5,78.1l2.1,1.3l0.6-1.4l-2.3-1.5L22.5,78.1z"/>
				<path id="Fill-232" class="st27" d="M19.2,76.3l2.1,1.3l2.4-6.7l-2.3-1.5L19.2,76.3z"/>
				<path id="Fill-234" class="st27" d="M15.8,74.3l2.1,1.3l1.5-4.1L17.1,70L15.8,74.3z"/>
				<path id="Fill-236" class="st27" d="M12.5,72.2l2.1,1.3l1-2.6l-2.3-1.5L12.5,72.2z"/>
				<path id="Fill-238" class="st27" d="M9.2,70l2.1,1.3l2.1-6.5l-2.3-1.5L9.2,70z"/>
				<path id="Fill-240" class="st27" d="M5.9,67.9L8,69.2l2.5-8l-2.3-1.5L5.9,67.9z"/>
				<path id="Fill-242" class="st27" d="M2.7,65.9l2.1,1.3l1.5-4.8L4,60.9L2.7,65.9z"/>
				<path id="Fill-244" class="st27" d="M29.8,80.8C29,80.5,28.4,79.9,28,79c-0.3-0.9-0.3-1.9,0-2.9c0.6-1.6,1.9-2.6,3.2-2.7
					l-0.5,3.9c0,0,1.8,0,3.6,0c0,0.3-0.1,0.7-0.2,1C33.4,80.3,31.5,81.4,29.8,80.8 M32.7,72.9c-2.1-0.8-4.4,0.6-5.3,2.9
					c-0.4,1.1-0.4,2.4,0,3.4c0.4,1.1,1.2,1.9,2.2,2.3c0.4,0.2,0.9,0.2,1.3,0.2c1.7-0.1,3.3-1.3,4-3.2C35.7,76.2,34.8,73.6,32.7,72.9
					"/>
				<path id="Fill-246" class="st27" d="M4.7,56.2l32.5,17.9l0.4-1.1L5,55.2L4.7,56.2z"/>
				<path id="Fill-248" class="st27" d="M24.6,60.9l-1,3.1l9.6,5.4l1.3-3.1l-6.4-3.7L28,61.1l-0.9,1.1L24.6,60.9z"/>
				<path id="Fill-250" class="st28" d="M16.8,48.4c0,0-3.2,6.2-3.8,11.9c-0.2,2.7-0.5,7.4,0.7,8.9s4.7,1.4,4.4-2
					c-0.2-3.4-0.3-4.4-0.1-7.8c0.1-1.5,1-4.5,1.8-7.2c0.3,0,0.7,0.2,0.7,0.2s2.1-4.9,3.3-6.7C22.7,45.2,16.8,48.4,16.8,48.4"/>
				<path id="Fill-252" class="st25" d="M24.6,34c0,0,4.8,10.9,17.2,16.1c-0.2,1.1,0.1,1.1-0.3,2.2c-8.1-4.1-13.2-7.1-16.9-15.5
					L24.6,34L24.6,34z"/>
				<path id="Fill-254" class="st25" d="M65,35.2c0,0-4.1,11.2-9.5,15.2c0.1,1.1,0,1.4,0.3,2.4c3.9-3.1,6.8-6.6,9.2-14.8V35.2z"/>
				<path id="Fill-256" class="st29" d="M57.1,58c0,0-0.5-0.1-1.1-0.1l-0.9-6c0,0-2.3-0.4-3.1-0.4c-0.5,0-1.9,0.2-2.5,0.3
					c-1.5-0.1-4.5-0.3-5-0.3c-0.8,0-3.1,0.4-3.1,0.4l-0.9,6C39.8,58,39.4,58,39.4,58l-1.7,12c0,0,2.1,1.1,5.2,1.1
					c1.9,0,4.7-0.8,5.9-1.1l0,0c0,0,2.7,1.1,5.2,1.1c3.1,0,5.2-1.1,5.2-1.1L57.1,58z"/>
				<path id="Fill-258" class="st13" d="M46.5,49.5h-4.4l0.3-3.3c0,0,1-0.3,2.3-0.3c0.5,0,1.8,0.4,1.8,0.4L46.5,49.5L46.5,49.5z"/>
				<path id="Fill-260" class="st30" d="M47.3,56.1h-7.5l1.1-7.1c0,0,2.5-0.4,3.3-0.4s3.1,0.4,3.1,0.4L47.3,56.1L47.3,56.1z"/>
				<path id="Fill-262" class="st31" d="M41.6,49.5l-1,7.4l1.4-0.3l1-7.3C43,49.3,42.8,49.1,41.6,49.5"/>
				<path id="Fill-264" class="st30" d="M47.9,68.4c0,0-2.9,1.1-5.5,1.1c-3.3,0-5.5-1.1-5.5-1.1l1.9-12.7c0,0,3.1-0.4,4.6-0.4
					c2,0,4.5,0.4,4.5,0.4V68.4z"/>
				<path id="Fill-266" class="st32" d="M38.5,68.1c0,0,2.7-0.2,3.6-0.2c1,0,4,0.2,4,0.2s-1.5,0.7-4.1,0.7
					C39.8,68.8,38.5,68.1,38.5,68.1"/>
				<path id="Fill-268" class="st31" d="M39.4,56.4l-1.6,11.1l2.5-0.4l1.3-10.9C41.6,56.2,40.5,56.1,39.4,56.4"/>
				<path id="Fill-270" class="st13" d="M50.1,49.5h4.4l-0.3-3.3c0,0-1-0.3-2.3-0.3c-0.5,0-1.8,0.4-1.8,0.4L50.1,49.5L50.1,49.5z"/>
				<path id="Fill-272" class="st30" d="M49.3,56.1h7.5L55.7,49c0,0-2.5-0.4-3.3-0.4S49.3,49,49.3,49V56.1L49.3,56.1z"/>
				<path id="Fill-274" class="st31" d="M50.1,49.4v6.3c0,0,0.8-0.2,1.4-0.2c0-0.6-0.2-6.3-0.2-6.3S50.7,49.2,50.1,49.4"/>
				<path id="Fill-276" class="st33" d="M50.7,54.5H46l0.6,0.6h3.6L50.7,54.5z"/>
				<path id="Fill-278" class="st13" d="M50.7,54.5H46l0.2-4.1h4.4L50.7,54.5z"/>
				<path id="Fill-280" class="st30" d="M48.7,68.4c0,0,2.9,1.1,5.5,1.1c3.3,0,5.5-1.1,5.5-1.1l-1.9-12.7c0,0-3.1-0.4-4.6-0.4
					c-2,0-4.5,0.4-4.5,0.4V68.4z"/>
				<path id="Fill-282" class="st31" d="M49.7,56.5v10.7c0,0,1.6-0.3,2.6-0.3c0-1-0.5-10.7-0.5-10.7S50.7,56.1,49.7,56.5"/>
				<path id="Fill-284" class="st32" d="M50.6,68.1c0,0,2.7-0.2,3.6-0.2c1,0,4,0.2,4,0.2s-1.5,0.7-4.1,0.7
					C51.9,68.8,50.6,68.1,50.6,68.1"/>
				<path id="Fill-286" class="st4" d="M16,48.4c0,0-3.2,6.2-3.8,11.9c-0.2,2.7-0.5,7.4,0.7,8.9s4.7,1.4,4.4-2
					c-0.2-3.4-0.3-4.4-0.1-7.8c0.2-3.4,2.5-9.1,3-10.2C19.1,48.5,16,48.4,16,48.4"/>
				<path id="Fill-288" class="st6" d="M12.9,69.3c1.2,1.5,4.7,1.4,4.4-2c-0.1-1.4-0.2-2.4-0.2-3.3c0,0-2.2,0.4-2.9,0.4
					S11.9,64,11.9,64C12,66.1,12.2,68.3,12.9,69.3"/>
				<path id="Fill-290" class="st7" d="M15.3,64.2c0,0,0.8,3.6-0.3,5.2c1.2-0.3,1.8-0.8,1.9-1.8c0.1-0.8-0.1-2.2-0.3-3.6
					C16.1,64.1,15.3,64.2,15.3,64.2"/>
				<path id="Fill-292" class="st12" d="M24.6,36.8c0,0-8.2,8.1-9.9,12c1.5,0.9,3.8,1.8,5.4,2.8c1.2-1.8,3.2-5.3,4.5-6.6V36.8
					L24.6,36.8z"/>
				<path id="Fill-294" class="st24" d="M73.5,9.1c-0.8-0.1-1.4-0.3-1.9-0.5v0.6c0,0,2,1,4.1,0.3c0-0.2,0-0.4,0-0.6
					C75,9.1,74.4,9.2,73.5,9.1"/>
			</g>
		</g>
	</g>
</g>
</svg>
